<?xml version="1.0" standalone="no"?><!DOCTYPE svg PUBLIC "-//W3C//DTD SVG 1.1//EN" "http://www.w3.org/Graphics/SVG/1.1/DTD/svg11.dtd"><svg class="icon" width="200px" height="200.00px" viewBox="0 0 1024 1024" version="1.1" xmlns="http://www.w3.org/2000/svg"><path d="M488.106667 597.219556m-283.875556 0a283.875556 283.875556 0 1 0 567.751111 0 283.875556 283.875556 0 1 0-567.751111 0Z" fill="#A3A3A3" /><path d="M546.360889 544.085333m-283.875556 0a283.875556 283.875556 0 1 0 567.751111 0 283.875556 283.875556 0 1 0-567.751111 0Z" fill="#FFD44D" /><path d="M308.679111 519.054222c-0.113778-4.778667-3.982222-8.647111-8.874667-8.533333-4.778667 0.113778-8.647111 4.096-8.533333 8.874667 0.113778 4.778667 3.982222 8.647111 8.874667 8.533333 4.778667-0.113778 8.647111-4.096 8.533333-8.874667zM298.666667 440.888889c4.778667-0.113778 8.647111-3.982222 8.533333-8.874667-0.113778-4.778667-3.982222-8.647111-8.874667-8.533333-4.778667 0.113778-8.647111 4.096-8.533333 8.874667 0.113778 4.778667 4.096 8.647111 8.874667 8.533333zM429.624889 464.896c-4.778667 0.113778-8.647111 4.096-8.533333 8.874667 0.113778 4.778667 3.982222 8.647111 8.874666 8.533333 4.778667-0.113778 8.647111-3.982222 8.533334-8.874667-0.113778-4.778667-4.096-8.647111-8.874667-8.533333zM473.770667 507.676444c-4.778667 0.113778-8.647111 4.096-8.533334 8.874667 0.113778 4.778667 3.982222 8.647111 8.874667 8.533333 4.778667-0.113778 8.647111-3.982222 8.533333-8.874666-0.113778-4.778667-4.096-8.647111-8.874666-8.533334zM472.405333 420.636444c-4.778667 0.113778-8.647111 4.096-8.533333 8.874667 0.113778 4.778667 3.982222 8.647111 8.874667 8.533333 4.778667-0.113778 8.647111-3.982222 8.533333-8.874666-0.113778-4.778667-4.096-8.533333-8.874667-8.533334zM386.844444 509.041778c-4.778667 0.113778-8.647111 4.096-8.533333 8.874666 0.113778 4.778667 3.982222 8.647111 8.874667 8.533334 4.778667-0.113778 8.647111-3.982222 8.533333-8.874667-0.113778-4.778667-4.096-8.533333-8.874667-8.533333zM385.365333 422.115556c-4.778667 0.113778-8.647111 4.096-8.533333 8.874666 0.113778 4.778667 3.982222 8.647111 8.874667 8.533334 4.778667-0.113778 8.647111-3.982222 8.533333-8.874667-0.113778-4.778667-3.982222-8.647111-8.874667-8.533333zM342.584889 466.261333c-4.778667 0.113778-8.647111 4.096-8.533333 8.874667 0.113778 4.778667 3.982222 8.647111 8.874666 8.533333 4.778667-0.113778 8.647111-3.982222 8.533334-8.874666-0.113778-4.778667-4.096-8.533333-8.874667-8.533334zM344.064 553.301333c-1.820444 0-3.413333 0.568889-4.892444 1.592889-0.455111 0.341333-0.910222 0.682667-1.251556 1.137778-0.796444 0.796444-1.365333 1.706667-1.820444 2.844444-0.227556 0.568889-0.341333 1.024-0.455112 1.592889-0.113778 0.568889-0.113778 1.137778-0.113777 1.706667 0 0.341333 0 0.682667 0.113777 1.024 0.341333 2.844444 2.161778 5.233778 4.551112 6.485333 1.251556 0.682667 2.616889 1.024 4.209777 1.024 0.455111 0 0.796444 0 1.251556-0.113777 1.934222-0.341333 3.527111-1.251556 4.892444-2.503112 1.024-1.024 1.706667-2.275556 2.048-3.640888 0-0.113778 0-0.227556 0.113778-0.341334 0.113778-0.227556 0.113778-0.455111 0.113778-0.682666 0.113778-0.455111 0.113778-1.024 0.113778-1.479112 0-2.389333-1.024-4.551111-2.616889-6.144-1.706667-1.592889-3.868444-2.616889-6.257778-2.503111zM426.780444 290.929778c-4.778667 0.113778-8.647111 4.096-8.533333 8.874666 0.113778 4.778667 3.982222 8.647111 8.874667 8.533334 4.778667-0.113778 8.647111-3.982222 8.533333-8.874667-0.113778-4.778667-4.096-8.647111-8.874667-8.533333zM470.926222 333.710222c-4.778667 0.113778-8.647111 4.096-8.533333 8.874667 0.113778 4.778667 3.982222 8.647111 8.874667 8.533333 4.778667-0.113778 8.647111-3.982222 8.533333-8.874666-0.113778-4.778667-4.096-8.647111-8.874667-8.533334zM384 335.075556c-4.778667 0.113778-8.647111 4.096-8.533333 8.874666 0.113778 4.778667 3.982222 8.647111 8.874666 8.533334 4.778667-0.113778 8.647111-3.982222 8.533334-8.874667-0.113778-4.778667-4.096-8.533333-8.874667-8.533333zM436.906667 385.592889c-0.113778-1.137778-0.455111-2.275556-1.024-3.185778-0.455111-0.682667-0.910222-1.365333-1.479111-1.934222-1.592889-1.592889-3.754667-2.503111-6.144-2.503111-2.389333 0-4.551111 1.024-6.144 2.616889-0.341333 0.455111-0.682667 0.796444-1.024 1.251555-0.910222 1.365333-1.479111 3.072-1.365334 4.892445 0 1.251556 0.227556 2.389333 0.682667 3.413333 1.365333 3.072 4.551111 5.233778 8.078222 5.233778 3.640889-0.113778 6.712889-2.275556 7.964445-5.461334 0.455111-1.024 0.682667-2.161778 0.682666-3.413333-0.113778-0.341333-0.113778-0.682667-0.227555-0.910222zM347.363556 381.724444c-1.592889-1.592889-3.754667-2.503111-6.144-2.503111-2.389333 0-4.551111 1.024-6.144 2.616889-0.341333 0.455111-0.682667 0.796444-1.024 1.251556-0.910222 1.365333-1.479111 3.072-1.365334 4.892444 0 1.251556 0.227556 2.389333 0.682667 3.413334 1.365333 3.072 4.551111 5.233778 8.078222 5.233777 3.640889-0.113778 6.599111-2.275556 7.964445-5.461333 0.455111-1.024 0.682667-2.161778 0.682666-3.413333 0-1.820444-0.568889-3.413333-1.592889-4.892445-0.341333-0.227556-0.682667-0.682667-1.137777-1.137778zM603.818667 479.459556c4.778667-0.113778 8.647111-3.982222 8.533333-8.874667-0.113778-4.778667-4.096-8.647111-8.874667-8.533333-4.778667 0.113778-8.647111 4.096-8.533333 8.874666 0.113778 4.778667 4.096 8.533333 8.874667 8.533334zM648.078222 522.24c4.778667-0.113778 8.647111-3.982222 8.533334-8.874667-0.113778-4.778667-3.982222-8.647111-8.874667-8.533333-4.778667 0.113778-8.647111 4.096-8.533333 8.874667 0.113778 4.778667 3.982222 8.533333 8.874666 8.533333zM646.599111 435.2c4.778667-0.113778 8.647111-3.982222 8.533333-8.874667-0.113778-4.778667-3.982222-8.647111-8.874666-8.533333-4.778667 0.113778-8.647111 4.096-8.533334 8.874667 0.113778 4.778667 4.096 8.647111 8.874667 8.533333zM561.038222 523.605333c4.778667-0.113778 8.647111-3.982222 8.533334-8.874666-0.113778-4.778667-3.982222-8.647111-8.874667-8.533334-4.778667 0.113778-8.647111 4.096-8.533333 8.874667 0.113778 4.778667 4.096 8.647111 8.874666 8.533333zM568.206222 427.804444c-0.113778-4.778667-3.982222-8.647111-8.874666-8.533333-4.778667 0.113778-8.647111 4.096-8.533334 8.874667 0.113778 4.778667 3.982222 8.647111 8.874667 8.533333 4.778667-0.113778 8.647111-4.096 8.533333-8.874667zM516.551111 463.416889c-4.778667 0.113778-8.647111 4.096-8.533333 8.874667 0.113778 4.778667 3.982222 8.647111 8.874666 8.533333 4.778667-0.113778 8.647111-3.982222 8.533334-8.874667-0.113778-4.778667-4.096-8.533333-8.874667-8.533333zM600.974222 305.493333c4.778667-0.113778 8.647111-3.982222 8.533334-8.874666-0.113778-4.778667-4.096-8.647111-8.874667-8.533334-4.778667 0.113778-8.647111 4.096-8.533333 8.874667 0.113778 4.778667 4.096 8.533333 8.874666 8.533333zM653.767111 339.399111c-0.113778-4.778667-3.982222-8.647111-8.874667-8.533333-4.778667 0.113778-8.647111 4.096-8.533333 8.874666 0.113778 4.778667 3.982222 8.647111 8.874667 8.533334 4.778667-0.113778 8.647111-4.096 8.533333-8.874667zM558.193778 349.639111c4.778667-0.113778 8.647111-3.982222 8.533333-8.874667-0.113778-4.778667-3.982222-8.647111-8.874667-8.533333-4.778667 0.113778-8.647111 4.096-8.533333 8.874667 0.113778 4.778667 4.096 8.647111 8.874667 8.533333zM554.325333 262.371556c0.796444 0.227556 1.592889 0.341333 2.503111 0.341333 0.568889 0 1.137778-0.113778 1.592889-0.227556-1.365333 0-2.730667-0.113778-4.096-0.113777zM602.453333 392.419556c3.640889-0.113778 6.712889-2.275556 7.964445-5.461334 0.455111-1.024 0.682667-2.161778 0.682666-3.413333 0-2.048-0.796444-3.982222-2.048-5.461333-0.227556-0.227556-0.341333-0.455111-0.568888-0.568889-1.592889-1.592889-3.754667-2.503111-6.144-2.503111-2.389333 0-4.551111 1.024-6.144 2.616888-0.341333 0.455111-0.682667 0.796444-1.024 1.251556-0.910222 1.365333-1.479111 3.072-1.365334 4.892444 0 1.251556 0.227556 2.389333 0.682667 3.413334 1.251556 3.185778 4.323556 5.347556 7.964444 5.233778zM513.706667 289.450667c-4.778667 0.113778-8.647111 4.096-8.533334 8.874666 0.113778 4.778667 3.982222 8.647111 8.874667 8.533334 4.778667-0.113778 8.647111-3.982222 8.533333-8.874667-0.113778-4.778667-4.096-8.533333-8.874666-8.533333zM521.329778 378.88c-1.592889-1.592889-3.754667-2.503111-6.144-2.503111-2.389333 0-4.551111 1.024-6.144 2.616889-0.341333 0.455111-0.682667 0.796444-1.024 1.251555-0.910222 1.365333-1.479111 3.072-1.365334 4.892445 0 1.251556 0.227556 2.389333 0.682667 3.413333 1.365333 3.072 4.551111 5.233778 8.078222 5.233778 3.640889-0.113778 6.599111-2.275556 7.964445-5.461333 0.455111-1.024 0.682667-2.161778 0.682666-3.413334 0-1.479111-0.455111-2.958222-1.137777-4.096-0.455111-0.682667-1.024-1.365333-1.592889-1.934222zM786.318222 467.740444c-0.113778-4.778667-4.096-8.647111-8.874666-8.533333-4.778667 0.113778-8.647111 4.096-8.533334 8.874667 0.113778 4.778667 3.982222 8.647111 8.874667 8.533333 4.778667-0.113778 8.647111-4.096 8.533333-8.874667zM735.004444 520.760889c4.778667-0.113778 8.647111-3.982222 8.533334-8.874667-0.113778-4.778667-3.982222-8.647111-8.874667-8.533333-4.778667 0.113778-8.647111 4.096-8.533333 8.874667 0.113778 4.778667 4.096 8.647111 8.874666 8.533333zM742.172444 424.96c-0.113778-4.778667-3.982222-8.647111-8.874666-8.533333-4.778667 0.113778-8.647111 4.096-8.533334 8.874666 0.113778 4.778667 3.982222 8.647111 8.874667 8.533334 4.778667-0.113778 8.533333-4.096 8.533333-8.874667zM690.858667 477.980444c4.778667-0.113778 8.647111-3.982222 8.533333-8.874666-0.113778-4.778667-3.982222-8.647111-8.874667-8.533334-4.778667 0.113778-8.647111 4.096-8.533333 8.874667 0.113778 4.778667 3.982222 8.647111 8.874667 8.533333zM723.285333 338.261333c0.113778 4.778667 3.982222 8.647111 8.874667 8.533334 4.778667-0.113778 8.647111-3.982222 8.533333-8.874667v-0.113778c-3.072-2.844444-6.257778-5.688889-9.443555-8.305778-4.551111 0.341333-7.964444 4.209778-7.964445 8.760889zM776.419556 389.575111c2.503111 0 4.778667-1.137778 6.371555-2.958222-3.185778-4.664889-6.485333-9.216-10.012444-13.767111-1.024 0.455111-2.048 1.137778-2.844445 1.934222-0.341333 0.455111-0.682667 0.796444-1.024 1.251556-0.910222 1.365333-1.479111 3.072-1.365333 4.892444 0 1.251556 0.227556 2.389333 0.682667 3.413333 1.365333 3.185778 4.551111 5.347556 8.192 5.233778zM688.014222 304.014222c1.934222 0 3.754667-0.682667 5.12-1.820444-4.551111-2.730667-9.216-5.347556-13.994666-7.850667 0 0.341333-0.113778 0.682667 0 1.024 0.113778 4.892444 3.982222 8.760889 8.874666 8.647111zM689.379556 391.054222c0.455111 0 0.910222 0 1.365333-0.113778 2.958222-0.455111 5.461333-2.616889 6.599111-5.347555 0.455111-1.024 0.682667-2.161778 0.682667-3.413333 0-1.479111-0.455111-2.958222-1.137778-4.096-0.455111-0.682667-0.910222-1.365333-1.479111-1.934223-1.592889-1.592889-3.754667-2.503111-6.144-2.503111-2.389333 0-4.551111 1.024-6.144 2.616889-0.341333 0.455111-0.682667 0.796444-1.024 1.251556-0.910222 1.365333-1.479111 3.072-1.365334 4.892444 0 1.251556 0.227556 2.389333 0.682667 3.413333 1.251556 3.072 4.323556 5.233778 7.964445 5.233778zM311.523556 693.020444c-0.113778-4.778667-3.982222-8.647111-8.874667-8.533333-0.910222 0-1.706667 0.113778-2.503111 0.341333 2.730667 4.892444 5.688889 9.784889 8.647111 14.449778 1.820444-1.592889 2.730667-3.754667 2.730667-6.257778zM301.511111 614.855111c4.778667-0.113778 8.647111-3.982222 8.533333-8.874667-0.113778-4.778667-3.982222-8.647111-8.874666-8.533333-4.778667 0.113778-8.647111 4.096-8.533334 8.874667 0.113778 4.778667 4.096 8.647111 8.874667 8.533333zM522.24 811.349333c-4.778667 0.113778-8.647111 4.096-8.533333 8.874667 0.113778 4.778667 3.982222 8.647111 8.874666 8.533333 4.778667-0.113778 8.647111-3.982222 8.533334-8.874666-0.113778-4.778667-3.982222-8.647111-8.874667-8.533334zM469.560889 777.443556c0.113778 4.778667 3.982222 8.647111 8.874667 8.533333 4.778667-0.113778 8.647111-3.982222 8.533333-8.874667-0.113778-4.778667-3.982222-8.647111-8.874667-8.533333-4.778667 0.113778-8.647111 4.096-8.533333 8.874667zM399.928889 778.581333c-0.113778-4.778667-3.982222-8.647111-8.874667-8.533333-4.209778 0.113778-7.623111 3.072-8.419555 6.940444 4.323556 3.072 8.760889 6.144 13.312 8.988445 2.503111-1.592889 4.096-4.323556 3.982222-7.395556zM432.469333 638.862222c-4.778667 0.113778-8.647111 4.096-8.533333 8.874667 0.113778 4.778667 3.982222 8.647111 8.874667 8.533333 4.778667-0.113778 8.647111-3.982222 8.533333-8.874666-0.113778-4.778667-4.096-8.647111-8.874667-8.533334zM476.615111 681.642667c-4.778667 0.113778-8.647111 4.096-8.533333 8.874666 0.113778 4.778667 3.982222 8.647111 8.874666 8.533334 4.778667-0.113778 8.647111-3.982222 8.533334-8.874667-0.113778-4.778667-3.982222-8.647111-8.874667-8.533333zM475.249778 594.602667c-4.778667 0.113778-8.647111 4.096-8.533334 8.874666 0.113778 4.778667 3.982222 8.647111 8.874667 8.533334 4.778667-0.113778 8.647111-3.982222 8.533333-8.874667-0.113778-4.778667-4.096-8.647111-8.874666-8.533333zM381.155556 691.882667c0.113778 4.778667 3.982222 8.647111 8.874666 8.533333 4.778667-0.113778 8.647111-3.982222 8.533334-8.874667-0.113778-4.778667-3.982222-8.647111-8.874667-8.533333-4.778667 0.113778-8.647111 4.096-8.533333 8.874667zM388.209778 596.081778c-4.778667 0.113778-8.647111 4.096-8.533334 8.874666 0.113778 4.778667 3.982222 8.647111 8.874667 8.533334 4.778667-0.113778 8.647111-3.982222 8.533333-8.874667-0.113778-4.778667-3.982222-8.647111-8.874666-8.533333zM433.834667 725.788444c-1.251556 0-2.389333 0.227556-3.413334 0.682667-2.048 0.910222-3.754667 2.616889-4.551111 4.664889-0.455111 1.024-0.682667 2.161778-0.682666 3.413333 0.113778 3.640889 2.275556 6.712889 5.461333 7.964445 1.024 0.455111 2.161778 0.682667 3.413333 0.682666s2.389333-0.227556 3.413334-0.682666c3.072-1.365333 5.233778-4.551111 5.233777-8.078222 0-1.251556-0.227556-2.389333-0.796444-3.413334-0.910222-2.048-2.616889-3.754667-4.664889-4.551111-1.024-0.455111-2.161778-0.682667-3.413333-0.682667zM345.429333 640.227556c-4.778667 0.113778-8.647111 4.096-8.533333 8.874666 0.113778 4.778667 3.982222 8.647111 8.874667 8.533334 4.778667-0.113778 8.647111-3.982222 8.533333-8.874667-0.113778-4.778667-3.982222-8.533333-8.874667-8.533333zM347.136 744.675556c1.251556 0 2.389333-0.227556 3.413333-0.682667 3.072-1.365333 5.233778-4.551111 5.233778-8.078222 0-1.251556-0.227556-2.389333-0.682667-3.413334-0.910222-2.048-2.616889-3.754667-4.664888-4.551111-1.024-0.455111-2.161778-0.682667-3.413334-0.682666s-2.389333 0.227556-3.413333 0.682666c-2.048 0.910222-3.754667 2.616889-4.551111 4.664889-0.455111 1.024-0.682667 2.161778-0.682667 3.413333 0 0.568889 0.113778 1.137778 0.227556 1.706667l6.144 6.485333c0.796444 0.341333 1.592889 0.455111 2.389333 0.455112zM437.248 554.325333c-1.592889-1.592889-3.754667-2.503111-6.144-2.389333-1.820444 0-3.413333 0.568889-4.892444 1.592889-0.455111 0.341333-0.910222 0.682667-1.251556 1.137778-0.796444 0.796444-1.365333 1.706667-1.820444 2.844444-0.455111 1.024-0.682667 2.161778-0.682667 3.413333 0 0.455111 0 0.796444 0.113778 1.137778 0.455111 2.844444 2.161778 5.12 4.551111 6.371556 0.113778 0.113778 0.341333 0.113778 0.455111 0.227555 0.113778 0 0.227556 0.113778 0.227555 0.113778 1.024 0.455111 2.161778 0.682667 3.413334 0.682667 2.275556 0 4.437333-1.024 5.916444-2.503111 0.113778-0.113778 0.227556-0.227556 0.341334-0.455111 1.479111-1.592889 2.275556-3.640889 2.275555-5.916445 0-2.048-0.796444-3.982222-2.048-5.461333-0.113778-0.455111-0.341333-0.682667-0.455111-0.796445zM618.154667 818.517333c-0.113778-4.778667-4.096-8.647111-8.874667-8.533333-4.778667 0.113778-8.647111 4.096-8.533333 8.874667 0 2.275556 0.910222 4.323556 2.389333 5.802666 4.892444-0.910222 9.784889-2.048 14.563556-3.299555 0.227556-0.910222 0.455111-1.820444 0.455111-2.844445zM652.288 783.132444c4.778667-0.113778 8.647111-3.982222 8.533333-8.874666-0.113778-4.778667-3.982222-8.647111-8.874666-8.533334-4.778667 0.113778-8.647111 4.096-8.533334 8.874667 0.113778 4.778667 4.096 8.647111 8.874667 8.533333zM565.361778 784.497778c4.778667-0.113778 8.647111-3.982222 8.533333-8.874667-0.113778-4.778667-3.982222-8.647111-8.874667-8.533333-4.778667 0.113778-8.647111 4.096-8.533333 8.874666 0.113778 4.778667 4.096 8.647111 8.874667 8.533334zM606.663111 653.312c4.778667-0.113778 8.647111-3.982222 8.533333-8.874667-0.113778-4.778667-4.096-8.647111-8.874666-8.533333-4.778667 0.113778-8.647111 4.096-8.533334 8.874667 0.113778 4.892444 4.096 8.647111 8.874667 8.533333zM650.922667 696.092444c4.778667-0.113778 8.647111-3.982222 8.533333-8.874666-0.113778-4.778667-3.982222-8.647111-8.874667-8.533334-4.778667 0.113778-8.647111 4.096-8.533333 8.874667 0.113778 4.892444 3.982222 8.647111 8.874667 8.533333zM649.443556 609.166222c4.778667-0.113778 8.647111-3.982222 8.533333-8.874666-0.113778-4.778667-3.982222-8.647111-8.874667-8.533334-4.778667 0.113778-8.647111 4.096-8.533333 8.874667 0.113778 4.778667 4.096 8.647111 8.874667 8.533333zM563.882667 697.571556c4.778667-0.113778 8.647111-3.982222 8.533333-8.874667-0.113778-4.778667-3.982222-8.647111-8.874667-8.533333-4.778667 0.113778-8.647111 4.096-8.533333 8.874666 0.113778 4.778667 4.096 8.647111 8.874667 8.533334zM562.517333 610.645333c4.778667-0.113778 8.647111-3.982222 8.533334-8.874666-0.113778-4.778667-3.982222-8.647111-8.874667-8.533334-4.778667 0.113778-8.647111 4.096-8.533333 8.874667 0.113778 4.778667 3.982222 8.533333 8.874666 8.533333zM604.728889 739.669333c1.024 0.455111 2.161778 0.682667 3.413333 0.682667s2.389333-0.227556 3.413334-0.682667c3.072-1.365333 5.233778-4.551111 5.233777-8.078222 0-1.251556-0.227556-2.389333-0.796444-3.413333-0.910222-2.048-2.616889-3.754667-4.664889-4.551111-1.024-0.455111-2.161778-0.682667-3.413333-0.682667s-2.389333 0.227556-3.413334 0.682667c-2.048 0.910222-3.754667 2.616889-4.551111 4.664889-0.455111 1.024-0.682667 2.161778-0.682666 3.413333 0.113778 3.640889 2.275556 6.712889 5.461333 7.964444zM519.395556 637.383111c-4.778667 0.113778-8.647111 4.096-8.533334 8.874667 0.113778 4.778667 3.982222 8.647111 8.874667 8.533333 4.778667-0.113778 8.647111-3.982222 8.533333-8.874667-0.113778-4.778667-4.096-8.647111-8.874666-8.533333zM520.874667 724.423111c-1.251556 0-2.389333 0.227556-3.413334 0.682667-2.048 0.910222-3.754667 2.616889-4.551111 4.664889-0.455111 1.024-0.682667 2.161778-0.682666 3.413333 0.113778 3.640889 2.275556 6.712889 5.461333 7.964444 1.024 0.455111 2.161778 0.682667 3.413333 0.682667s2.389333-0.227556 3.413334-0.682667c3.072-1.365333 5.233778-4.551111 5.233777-8.078222 0-1.251556-0.227556-2.389333-0.682666-3.413333-0.910222-2.048-2.616889-3.754667-4.664889-4.551111-1.251556-0.568889-2.389333-0.796444-3.527111-0.682667zM600.632889 565.134222c1.365333 0.796444 2.958222 1.251556 4.664889 1.251556 0.341333 0 0.568889 0 0.910222-0.113778 1.934222-0.227556 3.754667-1.137778 5.006222-2.389333 1.365333-1.365333 2.389333-3.185778 2.616889-5.347556 0-0.341333 0.113778-0.682667 0-1.024 0-1.479111-0.455111-2.958222-1.137778-4.096-0.113778-0.227556-0.341333-0.455111-0.455111-0.682667-0.455111-0.682667-1.024-1.251556-1.706666-1.820444-1.479111-1.251556-3.413333-1.934222-5.575112-1.934222-1.251556 0-2.389333 0.227556-3.413333 0.682666-1.251556 0.568889-2.389333 1.479111-3.299555 2.503112-0.227556 0.227556-0.341333 0.455111-0.455112 0.682666-0.910222 1.365333-1.479111 3.072-1.365333 4.892445 0 0.455111 0 0.796444 0.113778 1.137777 0.341333 2.730667 1.934222 4.892444 4.096 6.257778zM518.030222 550.456889c-0.910222 0-1.820444 0.113778-2.616889 0.455111-0.568889 0.227556-1.024 0.455111-1.592889 0.682667-0.227556 0.113778-0.455111 0.341333-0.682666 0.455111-2.275556 1.592889-3.754667 4.323556-3.754667 7.281778 0 0.455111 0 0.796444 0.113778 1.137777 0.455111 2.844444 2.161778 5.12 4.551111 6.371556 1.251556 0.682667 2.616889 1.024 4.209778 1.024 2.048 0 3.982222-0.796444 5.461333-2.048 0.227556-0.227556 0.455111-0.341333 0.682667-0.568889 0.568889-0.568889 1.024-1.137778 1.365333-1.820444l0.341333-0.682667c0.113778-0.113778 0.113778-0.227556 0.113778-0.341333 0.113778-0.341333 0.227556-0.796444 0.341334-1.137778 0-0.227556 0.113778-0.455111 0.113777-0.568889 0.113778-0.455111 0.113778-1.024 0.113778-1.479111 0-1.251556-0.227556-2.389333-0.682667-3.413334-1.365333-3.299556-4.551111-5.461333-8.078222-5.347555zM780.629333 650.467556c4.778667-0.113778 8.647111-3.982222 8.533334-8.874667-0.113778-4.778667-4.096-8.647111-8.874667-8.533333-4.778667 0.113778-8.647111 4.096-8.533333 8.874666 0.113778 4.892444 4.096 8.647111 8.874666 8.533334zM737.848889 694.727111c4.778667-0.113778 8.647111-3.982222 8.533333-8.874667-0.113778-4.778667-3.982222-8.647111-8.874666-8.533333-4.778667 0.113778-8.647111 4.096-8.533334 8.874667 0.113778 4.778667 4.096 8.647111 8.874667 8.533333zM736.483556 607.800889c4.778667-0.113778 8.647111-3.982222 8.533333-8.874667-0.113778-4.778667-3.982222-8.647111-8.874667-8.533333-4.778667 0.113778-8.647111 4.096-8.533333 8.874667 0.113778 4.778667 3.982222 8.533333 8.874667 8.533333zM693.703111 651.946667c4.778667-0.113778 8.647111-3.982222 8.533333-8.874667-0.113778-4.778667-3.982222-8.647111-8.874666-8.533333-4.778667 0.113778-8.647111 4.096-8.533334 8.874666 0.113778 4.778667 3.982222 8.647111 8.874667 8.533334zM691.655111 738.304c1.024 0.455111 2.161778 0.682667 3.413333 0.682667s2.389333-0.227556 3.413334-0.682667c3.072-1.365333 5.233778-4.551111 5.233778-8.078222 0-1.251556-0.227556-2.389333-0.682667-3.413334-0.910222-2.048-2.616889-3.754667-4.664889-4.551111-1.024-0.455111-2.161778-0.682667-3.413333-0.682666s-2.389333 0.227556-3.413334 0.682666c-2.048 0.910222-3.754667 2.616889-4.551111 4.664889-0.455111 1.024-0.682667 2.161778-0.682666 3.413334 0 3.640889 2.275556 6.712889 5.347555 7.964444zM770.844444 557.511111c0.455111 1.365333 1.251556 2.616889 2.161778 3.527111 1.592889 1.592889 3.754667 2.503111 6.144 2.503111 1.934222 0 3.754667-0.682667 5.12-1.820444 1.820444-1.365333 3.072-3.527111 3.299556-6.030222 0-0.341333 0.113778-0.682667 0-1.024 0-1.479111-0.455111-2.958222-1.137778-4.096-0.113778-0.227556-0.341333-0.455111-0.455111-0.682667-0.455111-0.682667-1.024-1.251556-1.706667-1.820444-1.479111-1.251556-3.413333-1.934222-5.575111-1.934223-0.910222 0-1.820444 0.113778-2.616889 0.455111-0.568889 0.227556-1.024 0.455111-1.592889 0.682667-0.227556 0.113778-0.455111 0.341333-0.682666 0.455111-2.275556 1.592889-3.754667 4.323556-3.754667 7.281778 0 0.796444 0.113778 1.592889 0.341333 2.389333 0.341333 0 0.455111 0.113778 0.455111 0.113778zM683.804444 558.990222c0.682667 1.934222 1.934222 3.527111 3.527112 4.551111 1.365333 0.910222 3.072 1.479111 4.892444 1.365334 2.048 0 3.982222-0.796444 5.461333-2.048 1.934222-1.592889 3.072-4.096 3.072-6.712889 0-2.958222-1.592889-5.575111-3.982222-7.168-0.455111-0.341333-0.910222-0.568889-1.479111-0.796445s-1.024-0.341333-1.592889-0.455111c-0.568889-0.113778-1.137778-0.113778-1.706667-0.113778-0.910222 0-1.820444 0.113778-2.616888 0.455112-0.568889 0.227556-1.024 0.455111-1.592889 0.682666-0.227556 0.113778-0.455111 0.341333-0.682667 0.455111-2.275556 1.592889-3.754667 4.323556-3.754667 7.281778 0 0.796444 0.113778 1.592889 0.341334 2.389333 0.113778 0 0.113778 0 0.113777 0.113778z" fill="#231B3B" /><path d="M950.044444 369.436444c-14.563556-51.313778-75.776-85.560889-163.043555-100.010666 12.970667 15.246222 24.803556 31.516444 35.157333 48.810666 48.583111 13.767111 81.578667 35.271111 89.088 61.895112 4.437333 15.473778 0.682667 33.564444-11.264 53.930666-12.743111 21.845333-35.84 46.421333-67.811555 70.997334 0-1.592889 0.227556-3.072 0.227555-4.664889 0-175.786667-144.270222-318.350222-322.332444-318.350223-178.062222 0.113778-322.332444 142.563556-322.332445 318.464 0 53.816889 13.653333 104.448 37.546667 148.935112-63.715556-12.856889-107.406222-37.091556-116.394667-68.494223-4.437333-15.473778-0.682667-33.564444 11.264-53.930666 6.485333-11.036444 16.270222-22.869333 27.761778-34.816 0.455111-20.707556 2.503111-40.96 6.485333-60.643556-65.194667 52.679111-98.531556 109.909333-84.195555 160.085333 15.815111 55.523556 86.129778 91.249778 185.116444 103.196445 58.936889 75.320889 151.096889 124.017778 254.862223 124.017778 158.037333 0 289.223111-112.412444 316.757333-260.664889 90.567111-59.960889 139.946667-129.251556 123.107555-188.757334z m-439.978666 409.6c-77.027556 0-146.773333-30.606222-197.632-80.099555 6.826667 0.227556 13.767111 0.341333 20.821333 0.341333 70.087111 0 149.048889-9.784889 230.4-30.378666 80.896-20.48 153.827556-49.038222 214.357333-81.806223-36.977778 111.388444-142.904889 191.943111-267.946666 191.943111z m279.665778-244.736c-59.164444 36.750222-138.695111 71.566222-236.088889 96.256-75.434667 19.000889-151.665778 29.127111-220.501334 29.127112-19.911111 0-38.570667 1.706667-56.547555 0.113777-30.606222-44.600889-48.583111-101.262222-48.583111-159.175111 0-153.827556 126.293333-278.528 282.055111-278.528S792.120889 346.794667 792.120889 500.622222c0 11.264-0.910222 22.528-2.389333 33.678222z m-420.750223 45.738667c-44.487111 0-80.554667-35.726222-80.554666-79.644444s36.181333-79.530667 80.554666-79.530667c44.487111 0 80.554667 35.726222 80.554667 79.530667 0 43.918222-36.067556 79.644444-80.554667 79.644444z m0-119.352889c-22.186667 0-40.277333 17.863111-40.277333 39.822222s18.090667 39.822222 40.277333 39.822223 40.277333-17.863111 40.277334-39.822223-18.090667-39.822222-40.277334-39.822222z m171.235556-99.441778c-27.761778 0-50.403556-22.300444-50.403556-49.720888s22.528-49.720889 50.403556-49.720889c27.761778 0 50.403556 22.300444 50.403555 49.720889 0 27.306667-22.641778 49.720889-50.403555 49.720888z m0-59.733333c-5.575111 0-10.126222 4.437333-10.126222 9.898667 0 5.461333 4.551111 9.898667 10.126222 9.898666s10.126222-4.437333 10.126222-9.898666c0-5.461333-4.551111-9.898667-10.126222-9.898667z m110.819555 238.705778c-22.186667 0-40.277333-17.863111-40.277333-39.822222s18.090667-39.822222 40.277333-39.822223 40.277333 17.863111 40.277334 39.822223c0 22.072889-18.090667 39.822222-40.277334 39.822222z m0 0" fill="#592B0C" /><path d="M510.065778 827.392c-51.996444 0-101.831111-11.605333-148.024889-34.702222-42.894222-21.390222-81.351111-52.337778-111.274667-89.884445-49.834667-6.371556-91.249778-18.318222-123.335111-35.84-35.043556-19.114667-57.116444-43.690667-65.422222-73.045333-14.677333-51.768889 16.156444-111.843556 87.04-169.073778 2.844444-2.275556 6.712889-2.503111 9.784889-0.682666 3.072 1.820444 4.664889 5.461333 3.982222 8.988444-3.640889 18.773333-5.802667 38.684444-6.257778 59.164444 0 2.161778-0.910222 4.096-2.389333 5.688889-12.401778 13.084444-21.162667 23.893333-26.624 33.336889-10.581333 18.204444-14.108444 34.133333-10.353778 47.217778 6.940444 24.576 40.391111 45.511111 92.501333 58.595556-19.911111-42.666667-30.378667-89.656889-30.378666-136.647112 0-87.381333 34.474667-169.415111 96.938666-231.196444 62.464-61.667556 145.521778-95.687111 233.927112-95.687111s171.463111 34.019556 233.927111 95.687111c59.392 58.595556 93.411556 135.623111 96.711111 218.112 23.552-19.797333 41.415111-39.480889 51.996444-57.571556 10.581333-18.204444 14.108444-34.133333 10.353778-47.217777-6.485333-22.755556-36.067556-42.666667-83.285333-56.092445-2.048-0.568889-3.868444-1.934222-5.006223-3.868444-10.012444-16.611556-21.504-32.654222-34.360888-47.672889-2.275556-2.730667-2.730667-6.599111-0.910223-9.784889 1.706667-3.072 5.233778-4.778667 8.874667-4.209778 94.549333 15.587556 154.851556 53.248 169.870222 106.040889 17.180444 60.529778-27.875556 131.868444-123.676444 196.039111-14.336 72.817778-53.930667 139.264-111.729778 187.392-59.505778 49.607111-135.054222 76.913778-212.878222 76.913778zM142.222222 453.063111c-52.792889 47.786667-75.434667 95.687111-63.943111 136.305778 14.108444 49.720889 78.961778 85.105778 177.948445 97.052444 2.275556 0.227556 4.323556 1.479111 5.688888 3.185778 28.785778 36.750222 65.991111 67.128889 107.633778 87.836445 43.804444 21.845333 91.022222 32.881778 140.401778 32.881777 73.841778 0 145.521778-25.827556 201.841778-72.817777 55.637333-46.307556 93.411556-110.592 106.496-180.906667 0.455111-2.275556 1.706667-4.323556 3.640889-5.575111 44.487111-29.354667 78.848-61.212444 99.555555-92.046222 20.935111-31.288889 27.648-60.529778 20.138667-87.04-6.485333-22.869333-23.438222-42.666667-50.403556-58.823112-22.072889-13.198222-50.062222-23.552-83.285333-30.72 7.054222 9.329778 13.539556 19.000889 19.569778 28.785778 51.996444 15.246222 83.626667 38.343111 91.818666 66.901334 5.12 17.749333 1.024 38.115556-12.060444 60.529777-13.653333 23.324444-37.888 48.696889-70.087111 73.500445-2.616889 2.048-6.144 2.275556-8.988445 0.910222-2.958222-1.479111-4.778667-4.437333-4.664888-7.736889 0-1.024 0.113778-1.934222 0.113777-2.730667 0-0.682667 0.113778-1.251556 0.113778-1.820444 0-82.716444-32.654222-160.540444-91.818667-219.022222-59.278222-58.595556-138.126222-90.794667-221.866666-90.794667-83.854222 0-162.588444 32.199111-221.866667 90.794667-59.278222 58.481778-91.818667 136.305778-91.818667 219.022222 0 50.289778 12.629333 100.465778 36.522667 144.952889 1.592889 2.958222 1.251556 6.485333-0.682667 9.102222-1.934222 2.616889-5.347556 3.982222-8.533333 3.299556-69.518222-13.994667-113.208889-40.504889-122.88-74.524445-5.006222-17.749333-1.024-38.115556 12.060445-60.529778 5.802667-9.898667 14.563556-21.048889 26.737777-34.019555 0.227556-12.401778 1.137778-24.348444 2.616889-35.953778z m367.843556 334.506667c-76.572444 0-148.935111-29.240889-203.662222-82.488889-2.503111-2.503111-3.299556-6.257778-1.934223-9.443556 1.365333-3.299556 4.551111-5.347556 8.078223-5.233777 7.850667 0.227556 14.336 0.341333 20.593777 0.341333 71.452444 0 150.414222-10.353778 228.352-30.037333 76.913778-19.456 150.300444-47.445333 212.309334-81.009778 3.072-1.706667 6.826667-1.251556 9.557333 0.910222 2.730667 2.275556 3.754667 5.916444 2.616889 9.216-18.887111 57.002667-54.840889 106.154667-103.992889 141.880889-50.062222 36.522667-109.454222 55.864889-171.918222 55.864889z m-174.990222-79.644445c49.038222 40.504889 110.364444 62.577778 174.990222 62.577778 58.823111 0 114.801778-18.204444 162.019555-52.565333 40.163556-29.240889 70.997333-67.925333 89.998223-112.867556-58.709333 29.582222-126.179556 54.385778-196.380445 72.135111-78.506667 19.911111-158.264889 30.492444-230.627555 30.72z m-40.732445-39.025777c-6.144 0-12.288-0.227556-18.432-0.796445-2.503111-0.227556-4.778667-1.592889-6.257778-3.640889-32.312889-46.990222-50.062222-105.244444-50.062222-163.953778 0-76.686222 30.264889-148.821333 85.105778-202.979555 54.840889-54.158222 127.772444-84.081778 205.368889-84.081778s150.528 29.809778 205.368889 84.081778c54.954667 54.272 85.105778 126.293333 85.105777 202.979555 0 10.695111-0.796444 22.072889-2.389333 34.816-0.341333 2.503111-1.820444 4.892444-3.982222 6.144-65.877333 40.846222-148.366222 74.410667-238.478222 97.28-76.003556 19.228444-153.031111 29.354667-222.549334 29.354667-6.712889 0-13.425778 0.227556-19.911111 0.341333-6.371556 0.227556-12.743111 0.455111-18.887111 0.455112z m-12.970667-17.408c10.012444 0.682667 20.48 0.341333 31.402667 0 6.599111-0.227556 13.425778-0.455111 20.366222-0.455112 68.152889 0 143.701333-10.012444 218.339556-28.785777 86.926222-21.959111 166.456889-54.044444 230.172444-93.070223 1.137778-10.353778 1.706667-19.797333 1.706667-28.672 0-72.135111-28.444444-139.946667-80.099556-190.919111-51.655111-50.972444-120.376889-79.075556-193.422222-79.075555s-141.767111 28.103111-193.422222 79.075555c-51.655111 50.972444-80.099556 118.784-80.099556 190.919111 0.227556 53.930667 16.156444 107.406222 45.056 150.983112z m508.359112-117.191112z m-420.750223 54.272c-49.152 0-89.088-39.480889-89.088-88.177777 0-48.583111 39.936-88.064 89.088-88.064 49.152 0 89.088 39.480889 89.088 88.064 0 48.696889-39.936 88.177778-89.088 88.177777z m0-159.175111c-39.708444 0-72.021333 31.857778-72.021333 70.997334s32.312889 71.111111 72.021333 71.111111 72.021333-31.857778 72.021334-71.111111c0-39.139556-32.312889-70.997333-72.021334-70.997334z m282.055111 119.352889c-26.965333 0-48.810667-21.731556-48.810666-48.355555s21.845333-48.355556 48.810666-48.355556 48.810667 21.731556 48.810667 48.355556c0 26.737778-21.959111 48.355556-48.810667 48.355555z m0-79.530666c-17.521778 0-31.744 13.994667-31.744 31.288888s14.222222 31.288889 31.744 31.288889c17.521778 0 31.744-13.994667 31.744-31.288889s-14.222222-31.288889-31.744-31.288888z m-282.055111 79.530666c-26.965333 0-48.810667-21.731556-48.810666-48.355555s21.845333-48.355556 48.810666-48.355556 48.810667 21.731556 48.810667 48.355556c0 26.737778-21.845333 48.355556-48.810667 48.355555z m0-79.530666c-17.521778 0-31.744 13.994667-31.744 31.288888s14.222222 31.288889 31.744 31.288889 31.744-13.994667 31.744-31.288889-14.222222-31.288889-31.744-31.288888zM540.216889 369.777778c-32.426667 0-58.936889-26.168889-58.936889-58.254222 0-32.085333 26.396444-58.254222 58.936889-58.254223 32.426667 0 58.936889 26.168889 58.936889 58.254223 0 32.085333-26.510222 58.254222-58.936889 58.254222z m0-99.555556c-23.096889 0-41.870222 18.432-41.870222 41.187556s18.773333 41.187556 41.870222 41.187555c23.096889 0 41.870222-18.432 41.870222-41.187555s-18.773333-41.187556-41.870222-41.187556z m0 59.733334c-10.24 0-18.659556-8.305778-18.659556-18.432 0-10.24 8.305778-18.432 18.659556-18.432 10.24 0 18.659556 8.305778 18.659555 18.432 0 10.126222-8.419556 18.432-18.659555 18.432z m0-19.911112c-0.796444 0-1.592889 0.682667-1.592889 1.365334 0 0.796444 0.682667 1.365333 1.592889 1.365333 0.796444 0 1.592889-0.682667 1.592889-1.365333s-0.796444-1.365333-1.592889-1.365334z" fill="#592B0C" /></svg>